<svg width="484" height="152" viewBox="0 0 484 152" fill="none" xmlns="http://www.w3.org/2000/svg">
<g clip-path="url(#clip0_338_85)">
<g filter="url(#filter0_d_338_85)">
<mask id="path-1-outside-1_338_85" maskUnits="userSpaceOnUse" x="21" y="37" width="443" height="76" fill="black">
<rect fill="white" x="21" y="37" width="443" height="76"/>
<path d="M22.3239 111V41.1818H67.0511V51.7841H34.9716V70.7386H63.983V81.3409H34.9716V111H22.3239ZM97.0256 112.023C91.9119 112.023 87.4801 110.898 83.7301 108.648C79.9801 106.398 77.071 103.25 75.0028 99.2045C72.9574 95.1591 71.9347 90.4318 71.9347 85.0227C71.9347 79.6136 72.9574 74.875 75.0028 70.8068C77.071 66.7386 79.9801 63.5795 83.7301 61.3295C87.4801 59.0795 91.9119 57.9545 97.0256 57.9545C102.139 57.9545 106.571 59.0795 110.321 61.3295C114.071 63.5795 116.969 66.7386 119.014 70.8068C121.082 74.875 122.116 79.6136 122.116 85.0227C122.116 90.4318 121.082 95.1591 119.014 99.2045C116.969 103.25 114.071 106.398 110.321 108.648C106.571 110.898 102.139 112.023 97.0256 112.023ZM97.0938 102.136C99.8665 102.136 102.185 101.375 104.048 99.8523C105.912 98.3068 107.298 96.2386 108.207 93.6477C109.139 91.0568 109.605 88.1705 109.605 84.9886C109.605 81.7841 109.139 78.8864 108.207 76.2955C107.298 73.6818 105.912 71.6023 104.048 70.0568C102.185 68.5114 99.8665 67.7386 97.0938 67.7386C94.2528 67.7386 91.8892 68.5114 90.0028 70.0568C88.1392 71.6023 86.7415 73.6818 85.8097 76.2955C84.9006 78.8864 84.446 81.7841 84.446 84.9886C84.446 88.1705 84.9006 91.0568 85.8097 93.6477C86.7415 96.2386 88.1392 98.3068 90.0028 99.8523C91.8892 101.375 94.2528 102.136 97.0938 102.136ZM132.591 111V58.6364H144.557V67.3636H145.102C146.057 64.3409 147.693 62.0114 150.011 60.375C152.352 58.7159 155.023 57.8864 158.023 57.8864C158.705 57.8864 159.466 57.9205 160.307 57.9886C161.17 58.0341 161.886 58.1136 162.455 58.2273V69.5795C161.932 69.3977 161.102 69.2386 159.966 69.1023C158.852 68.9432 157.773 68.8636 156.727 68.8636C154.477 68.8636 152.455 69.3523 150.659 70.3295C148.886 71.2841 147.489 72.6136 146.466 74.3182C145.443 76.0227 144.932 77.9886 144.932 80.2159V111H132.591ZM170.653 111V58.6364H182.449V67.5341H183.062C184.153 64.5341 185.96 62.1932 188.483 60.5114C191.006 58.8068 194.017 57.9545 197.517 57.9545C201.062 57.9545 204.051 58.8182 206.483 60.5455C208.938 62.25 210.665 64.5795 211.665 67.5341H212.21C213.369 64.625 215.324 62.3068 218.074 60.5795C220.847 58.8295 224.131 57.9545 227.926 57.9545C232.744 57.9545 236.676 59.4773 239.722 62.5227C242.767 65.5682 244.29 70.0114 244.29 75.8523V111H231.915V77.7614C231.915 74.5114 231.051 72.1364 229.324 70.6364C227.597 69.1136 225.483 68.3523 222.983 68.3523C220.006 68.3523 217.676 69.2841 215.994 71.1477C214.335 72.9886 213.506 75.3864 213.506 78.3409V111H201.403V77.25C201.403 74.5455 200.585 72.3864 198.949 70.7727C197.335 69.1591 195.222 68.3523 192.608 68.3523C190.835 68.3523 189.222 68.8068 187.767 69.7159C186.313 70.6023 185.153 71.8636 184.29 73.5C183.426 75.1136 182.994 77 182.994 79.1591V111H170.653ZM256.81 111V58.6364H269.151V111H256.81ZM263.014 51.2045C261.06 51.2045 259.378 50.5568 257.969 49.2614C256.56 47.9432 255.855 46.3636 255.855 44.5227C255.855 42.6591 256.56 41.0795 257.969 39.7841C259.378 38.4659 261.06 37.8068 263.014 37.8068C264.991 37.8068 266.673 38.4659 268.06 39.7841C269.469 41.0795 270.173 42.6591 270.173 44.5227C270.173 46.3636 269.469 47.9432 268.06 49.2614C266.673 50.5568 264.991 51.2045 263.014 51.2045ZM281.159 111V103.159L308.159 69.3068V68.8636H282.045V58.6364H323.261V67.0568L297.557 100.33V100.773H324.148V111H281.159ZM357.429 112.023C352.179 112.023 347.645 110.932 343.827 108.75C340.031 106.545 337.111 103.432 335.065 99.4091C333.02 95.3636 331.997 90.6023 331.997 85.125C331.997 79.7386 333.02 75.0114 335.065 70.9432C337.134 66.8523 340.02 63.6705 343.724 61.3977C347.429 59.1023 351.781 57.9545 356.781 57.9545C360.009 57.9545 363.054 58.4773 365.918 59.5227C368.804 60.5455 371.349 62.1364 373.554 64.2955C375.781 66.4545 377.531 69.2045 378.804 72.5455C380.077 75.8636 380.713 79.8182 380.713 84.4091V88.1932H337.793V79.875H368.884C368.861 77.5114 368.349 75.4091 367.349 73.5682C366.349 71.7045 364.952 70.2386 363.156 69.1705C361.384 68.1023 359.315 67.5682 356.952 67.5682C354.429 67.5682 352.213 68.1818 350.304 69.4091C348.395 70.6136 346.906 72.2045 345.838 74.1818C344.793 76.1364 344.259 78.2841 344.236 80.625V87.8864C344.236 90.9318 344.793 93.5455 345.906 95.7273C347.02 97.8864 348.577 99.5455 350.577 100.705C352.577 101.841 354.918 102.409 357.599 102.409C359.395 102.409 361.02 102.159 362.474 101.659C363.929 101.136 365.19 100.375 366.259 99.375C367.327 98.375 368.134 97.1364 368.679 95.6591L380.202 96.9545C379.474 100 378.088 102.659 376.043 104.932C374.02 107.182 371.429 108.932 368.27 110.182C365.111 111.409 361.497 112.023 357.429 112.023ZM414.335 112.023C409.085 112.023 404.551 110.932 400.733 108.75C396.938 106.545 394.017 103.432 391.972 99.4091C389.926 95.3636 388.903 90.6023 388.903 85.125C388.903 79.7386 389.926 75.0114 391.972 70.9432C394.04 66.8523 396.926 63.6705 400.631 61.3977C404.335 59.1023 408.688 57.9545 413.688 57.9545C416.915 57.9545 419.96 58.4773 422.824 59.5227C425.71 60.5455 428.256 62.1364 430.46 64.2955C432.688 66.4545 434.438 69.2045 435.71 72.5455C436.983 75.8636 437.619 79.8182 437.619 84.4091V88.1932H394.699V79.875H425.79C425.767 77.5114 425.256 75.4091 424.256 73.5682C423.256 71.7045 421.858 70.2386 420.062 69.1705C418.29 68.1023 416.222 67.5682 413.858 67.5682C411.335 67.5682 409.119 68.1818 407.21 69.4091C405.301 70.6136 403.813 72.2045 402.744 74.1818C401.699 76.1364 401.165 78.2841 401.142 80.625V87.8864C401.142 90.9318 401.699 93.5455 402.812 95.7273C403.926 97.8864 405.483 99.5455 407.483 100.705C409.483 101.841 411.824 102.409 414.506 102.409C416.301 102.409 417.926 102.159 419.381 101.659C420.835 101.136 422.097 100.375 423.165 99.375C424.233 98.375 425.04 97.1364 425.585 95.6591L437.108 96.9545C436.381 100 434.994 102.659 432.949 104.932C430.926 107.182 428.335 108.932 425.176 110.182C422.017 111.409 418.403 112.023 414.335 112.023ZM455.662 111.75C453.594 111.75 451.821 111.023 450.344 109.568C448.866 108.114 448.139 106.341 448.162 104.25C448.139 102.205 448.866 100.455 450.344 99C451.821 97.5455 453.594 96.8182 455.662 96.8182C457.662 96.8182 459.401 97.5455 460.878 99C462.378 100.455 463.139 102.205 463.162 104.25C463.139 105.636 462.776 106.898 462.071 108.034C461.389 109.17 460.48 110.08 459.344 110.761C458.23 111.42 457.003 111.75 455.662 111.75Z"/>
</mask>
<path d="M22.3239 111V41.1818H67.0511V51.7841H34.9716V70.7386H63.983V81.3409H34.9716V111H22.3239ZM97.0256 112.023C91.9119 112.023 87.4801 110.898 83.7301 108.648C79.9801 106.398 77.071 103.25 75.0028 99.2045C72.9574 95.1591 71.9347 90.4318 71.9347 85.0227C71.9347 79.6136 72.9574 74.875 75.0028 70.8068C77.071 66.7386 79.9801 63.5795 83.7301 61.3295C87.4801 59.0795 91.9119 57.9545 97.0256 57.9545C102.139 57.9545 106.571 59.0795 110.321 61.3295C114.071 63.5795 116.969 66.7386 119.014 70.8068C121.082 74.875 122.116 79.6136 122.116 85.0227C122.116 90.4318 121.082 95.1591 119.014 99.2045C116.969 103.25 114.071 106.398 110.321 108.648C106.571 110.898 102.139 112.023 97.0256 112.023ZM97.0938 102.136C99.8665 102.136 102.185 101.375 104.048 99.8523C105.912 98.3068 107.298 96.2386 108.207 93.6477C109.139 91.0568 109.605 88.1705 109.605 84.9886C109.605 81.7841 109.139 78.8864 108.207 76.2955C107.298 73.6818 105.912 71.6023 104.048 70.0568C102.185 68.5114 99.8665 67.7386 97.0938 67.7386C94.2528 67.7386 91.8892 68.5114 90.0028 70.0568C88.1392 71.6023 86.7415 73.6818 85.8097 76.2955C84.9006 78.8864 84.446 81.7841 84.446 84.9886C84.446 88.1705 84.9006 91.0568 85.8097 93.6477C86.7415 96.2386 88.1392 98.3068 90.0028 99.8523C91.8892 101.375 94.2528 102.136 97.0938 102.136ZM132.591 111V58.6364H144.557V67.3636H145.102C146.057 64.3409 147.693 62.0114 150.011 60.375C152.352 58.7159 155.023 57.8864 158.023 57.8864C158.705 57.8864 159.466 57.9205 160.307 57.9886C161.17 58.0341 161.886 58.1136 162.455 58.2273V69.5795C161.932 69.3977 161.102 69.2386 159.966 69.1023C158.852 68.9432 157.773 68.8636 156.727 68.8636C154.477 68.8636 152.455 69.3523 150.659 70.3295C148.886 71.2841 147.489 72.6136 146.466 74.3182C145.443 76.0227 144.932 77.9886 144.932 80.2159V111H132.591ZM170.653 111V58.6364H182.449V67.5341H183.062C184.153 64.5341 185.96 62.1932 188.483 60.5114C191.006 58.8068 194.017 57.9545 197.517 57.9545C201.062 57.9545 204.051 58.8182 206.483 60.5455C208.938 62.25 210.665 64.5795 211.665 67.5341H212.21C213.369 64.625 215.324 62.3068 218.074 60.5795C220.847 58.8295 224.131 57.9545 227.926 57.9545C232.744 57.9545 236.676 59.4773 239.722 62.5227C242.767 65.5682 244.29 70.0114 244.29 75.8523V111H231.915V77.7614C231.915 74.5114 231.051 72.1364 229.324 70.6364C227.597 69.1136 225.483 68.3523 222.983 68.3523C220.006 68.3523 217.676 69.2841 215.994 71.1477C214.335 72.9886 213.506 75.3864 213.506 78.3409V111H201.403V77.25C201.403 74.5455 200.585 72.3864 198.949 70.7727C197.335 69.1591 195.222 68.3523 192.608 68.3523C190.835 68.3523 189.222 68.8068 187.767 69.7159C186.313 70.6023 185.153 71.8636 184.29 73.5C183.426 75.1136 182.994 77 182.994 79.1591V111H170.653ZM256.81 111V58.6364H269.151V111H256.81ZM263.014 51.2045C261.06 51.2045 259.378 50.5568 257.969 49.2614C256.56 47.9432 255.855 46.3636 255.855 44.5227C255.855 42.6591 256.56 41.0795 257.969 39.7841C259.378 38.4659 261.06 37.8068 263.014 37.8068C264.991 37.8068 266.673 38.4659 268.06 39.7841C269.469 41.0795 270.173 42.6591 270.173 44.5227C270.173 46.3636 269.469 47.9432 268.06 49.2614C266.673 50.5568 264.991 51.2045 263.014 51.2045ZM281.159 111V103.159L308.159 69.3068V68.8636H282.045V58.6364H323.261V67.0568L297.557 100.33V100.773H324.148V111H281.159ZM357.429 112.023C352.179 112.023 347.645 110.932 343.827 108.75C340.031 106.545 337.111 103.432 335.065 99.4091C333.02 95.3636 331.997 90.6023 331.997 85.125C331.997 79.7386 333.02 75.0114 335.065 70.9432C337.134 66.8523 340.02 63.6705 343.724 61.3977C347.429 59.1023 351.781 57.9545 356.781 57.9545C360.009 57.9545 363.054 58.4773 365.918 59.5227C368.804 60.5455 371.349 62.1364 373.554 64.2955C375.781 66.4545 377.531 69.2045 378.804 72.5455C380.077 75.8636 380.713 79.8182 380.713 84.4091V88.1932H337.793V79.875H368.884C368.861 77.5114 368.349 75.4091 367.349 73.5682C366.349 71.7045 364.952 70.2386 363.156 69.1705C361.384 68.1023 359.315 67.5682 356.952 67.5682C354.429 67.5682 352.213 68.1818 350.304 69.4091C348.395 70.6136 346.906 72.2045 345.838 74.1818C344.793 76.1364 344.259 78.2841 344.236 80.625V87.8864C344.236 90.9318 344.793 93.5455 345.906 95.7273C347.02 97.8864 348.577 99.5455 350.577 100.705C352.577 101.841 354.918 102.409 357.599 102.409C359.395 102.409 361.02 102.159 362.474 101.659C363.929 101.136 365.19 100.375 366.259 99.375C367.327 98.375 368.134 97.1364 368.679 95.6591L380.202 96.9545C379.474 100 378.088 102.659 376.043 104.932C374.02 107.182 371.429 108.932 368.27 110.182C365.111 111.409 361.497 112.023 357.429 112.023ZM414.335 112.023C409.085 112.023 404.551 110.932 400.733 108.75C396.938 106.545 394.017 103.432 391.972 99.4091C389.926 95.3636 388.903 90.6023 388.903 85.125C388.903 79.7386 389.926 75.0114 391.972 70.9432C394.04 66.8523 396.926 63.6705 400.631 61.3977C404.335 59.1023 408.688 57.9545 413.688 57.9545C416.915 57.9545 419.96 58.4773 422.824 59.5227C425.71 60.5455 428.256 62.1364 430.46 64.2955C432.688 66.4545 434.438 69.2045 435.71 72.5455C436.983 75.8636 437.619 79.8182 437.619 84.4091V88.1932H394.699V79.875H425.79C425.767 77.5114 425.256 75.4091 424.256 73.5682C423.256 71.7045 421.858 70.2386 420.062 69.1705C418.29 68.1023 416.222 67.5682 413.858 67.5682C411.335 67.5682 409.119 68.1818 407.21 69.4091C405.301 70.6136 403.813 72.2045 402.744 74.1818C401.699 76.1364 401.165 78.2841 401.142 80.625V87.8864C401.142 90.9318 401.699 93.5455 402.812 95.7273C403.926 97.8864 405.483 99.5455 407.483 100.705C409.483 101.841 411.824 102.409 414.506 102.409C416.301 102.409 417.926 102.159 419.381 101.659C420.835 101.136 422.097 100.375 423.165 99.375C424.233 98.375 425.04 97.1364 425.585 95.6591L437.108 96.9545C436.381 100 434.994 102.659 432.949 104.932C430.926 107.182 428.335 108.932 425.176 110.182C422.017 111.409 418.403 112.023 414.335 112.023ZM455.662 111.75C453.594 111.75 451.821 111.023 450.344 109.568C448.866 108.114 448.139 106.341 448.162 104.25C448.139 102.205 448.866 100.455 450.344 99C451.821 97.5455 453.594 96.8182 455.662 96.8182C457.662 96.8182 459.401 97.5455 460.878 99C462.378 100.455 463.139 102.205 463.162 104.25C463.139 105.636 462.776 106.898 462.071 108.034C461.389 109.17 460.48 110.08 459.344 110.761C458.23 111.42 457.003 111.75 455.662 111.75Z" fill="url(#paint0_linear_338_85)"/>
<path d="M22.3239 111H21.9239V111.4H22.3239V111ZM22.3239 41.1818V40.7818H21.9239V41.1818H22.3239ZM67.0511 41.1818H67.4511V40.7818H67.0511V41.1818ZM67.0511 51.7841V52.1841H67.4511V51.7841H67.0511ZM34.9716 51.7841V51.3841H34.5716V51.7841H34.9716ZM34.9716 70.7386H34.5716V71.1386H34.9716V70.7386ZM63.983 70.7386H64.383V70.3386H63.983V70.7386ZM63.983 81.3409V81.7409H64.383V81.3409H63.983ZM34.9716 81.3409V80.9409H34.5716V81.3409H34.9716ZM34.9716 111V111.4H35.3716V111H34.9716ZM22.7239 111V41.1818H21.9239V111H22.7239ZM22.3239 41.5818H67.0511V40.7818H22.3239V41.5818ZM66.6511 41.1818V51.7841H67.4511V41.1818H66.6511ZM67.0511 51.3841H34.9716V52.1841H67.0511V51.3841ZM34.5716 51.7841V70.7386H35.3716V51.7841H34.5716ZM34.9716 71.1386H63.983V70.3386H34.9716V71.1386ZM63.583 70.7386V81.3409H64.383V70.7386H63.583ZM63.983 80.9409H34.9716V81.7409H63.983V80.9409ZM34.5716 81.3409V111H35.3716V81.3409H34.5716ZM34.9716 110.6H22.3239V111.4H34.9716V110.6ZM83.7301 108.648L83.5243 108.991L83.7301 108.648ZM75.0028 99.2045L74.6459 99.385L74.6467 99.3866L75.0028 99.2045ZM75.0028 70.8068L74.6463 70.6255L74.6455 70.6271L75.0028 70.8068ZM83.7301 61.3295L83.9359 61.6725L83.7301 61.3295ZM110.321 61.3295L110.115 61.6725L110.321 61.3295ZM119.014 70.8068L118.657 70.9865L118.658 70.9881L119.014 70.8068ZM119.014 99.2045L118.658 99.0225L118.657 99.0241L119.014 99.2045ZM110.321 108.648L110.115 108.305L110.321 108.648ZM104.048 99.8523L104.301 100.162L104.304 100.16L104.048 99.8523ZM108.207 93.6477L107.831 93.5124L107.83 93.5153L108.207 93.6477ZM108.207 76.2955L107.83 76.4269L107.831 76.4308L108.207 76.2955ZM104.048 70.0568L104.304 69.7489L104.048 70.0568ZM90.0028 70.0568L89.7493 69.7474L89.7475 69.7489L90.0028 70.0568ZM85.8097 76.2955L85.4329 76.1611L85.4322 76.163L85.8097 76.2955ZM85.8097 93.6477L85.4322 93.7802L85.4333 93.7831L85.8097 93.6477ZM90.0028 99.8523L89.7475 100.16L89.7516 100.164L90.0028 99.8523ZM97.0256 111.623C91.972 111.623 87.6139 110.512 83.9359 108.305L83.5243 108.991C87.3463 111.284 91.8519 112.423 97.0256 112.423V111.623ZM83.9359 108.305C80.2527 106.095 77.3945 103.004 75.359 99.0225L74.6467 99.3866C76.7475 103.496 79.7076 106.701 83.5243 108.991L83.9359 108.305ZM75.3598 99.0241C73.3476 95.0444 72.3347 90.3811 72.3347 85.0227H71.5347C71.5347 90.4825 72.5672 95.2738 74.6459 99.385L75.3598 99.0241ZM72.3347 85.0227C72.3347 79.6644 73.3476 74.9894 75.3602 70.9865L74.6455 70.6271C72.5672 74.7606 71.5347 79.5629 71.5347 85.0227H72.3347ZM75.3594 70.9881C77.3951 66.9838 80.2533 63.8821 83.9359 61.6725L83.5243 60.9865C79.707 63.277 76.747 66.4934 74.6463 70.6255L75.3594 70.9881ZM83.9359 61.6725C87.6139 59.4658 91.972 58.3545 97.0256 58.3545V57.5545C91.8519 57.5545 87.3463 58.6933 83.5243 60.9865L83.9359 61.6725ZM97.0256 58.3545C102.079 58.3545 106.437 59.4658 110.115 61.6725L110.527 60.9865C106.705 58.6933 102.199 57.5545 97.0256 57.5545V58.3545ZM110.115 61.6725C113.797 63.8819 116.644 66.9831 118.657 70.9865L119.372 70.6271C117.294 66.4942 114.345 63.2772 110.527 60.9865L110.115 61.6725ZM118.658 70.9881C120.692 74.9906 121.716 79.665 121.716 85.0227H122.516C122.516 79.5622 121.472 74.7594 119.371 70.6255L118.658 70.9881ZM121.716 85.0227C121.716 90.3805 120.692 95.0432 118.658 99.0225L119.37 99.3866C121.472 95.275 122.516 90.4831 122.516 85.0227H121.716ZM118.657 99.0241C116.645 103.005 113.798 106.095 110.115 108.305L110.527 108.991C114.344 106.7 117.293 103.495 119.371 99.385L118.657 99.0241ZM110.115 108.305C106.437 110.512 102.079 111.623 97.0256 111.623V112.423C102.199 112.423 106.705 111.284 110.527 108.991L110.115 108.305ZM97.0938 102.536C99.944 102.536 102.356 101.752 104.301 100.162L103.795 99.5425C102.014 100.998 99.789 101.736 97.0938 101.736V102.536ZM104.304 100.16C106.23 98.5624 107.655 96.4302 108.585 93.7802L107.83 93.5153C106.942 96.0471 105.594 98.0512 103.793 99.5444L104.304 100.16ZM108.584 93.7831C109.533 91.1426 110.005 88.2095 110.005 84.9886H109.205C109.205 88.1314 108.745 90.9711 107.831 93.5124L108.584 93.7831ZM110.005 84.9886C110.005 81.7454 109.534 78.8009 108.584 76.1601L107.831 76.4308C108.745 78.9718 109.205 81.8228 109.205 84.9886H110.005ZM108.585 76.164C107.656 73.4916 106.231 71.3473 104.304 69.7489L103.793 70.3647C105.593 71.8573 106.941 73.8721 107.83 76.4269L108.585 76.164ZM104.304 69.7489C102.358 68.1354 99.9454 67.3386 97.0938 67.3386V68.1386C99.7875 68.1386 102.011 68.8873 103.793 70.3647L104.304 69.7489ZM97.0938 67.3386C94.1764 67.3386 91.7187 68.134 89.7493 69.7474L90.2563 70.3662C92.0597 68.8888 94.3293 68.1386 97.0938 68.1386V67.3386ZM89.7475 69.7489C87.8208 71.3466 86.3853 73.4898 85.4329 76.1611L86.1864 76.4298C87.0977 73.8738 88.4576 71.8579 90.2582 70.3647L89.7475 69.7489ZM85.4322 76.163C84.5059 78.8029 84.046 81.7464 84.046 84.9886H84.846C84.846 81.8218 85.2952 78.9698 86.1871 76.4279L85.4322 76.163ZM84.046 84.9886C84.046 88.2085 84.506 91.1405 85.4322 93.7802L86.1871 93.5153C85.2951 90.9731 84.846 88.1324 84.846 84.9886H84.046ZM85.4333 93.7831C86.3859 96.4319 87.8216 98.5631 89.7475 100.16L90.2582 99.5444C88.4568 98.0506 87.0971 96.0454 86.1861 93.5124L85.4333 93.7831ZM89.7516 100.164C91.7209 101.753 94.1778 102.536 97.0938 102.536V101.736C94.3278 101.736 92.0575 100.997 90.2541 99.541L89.7516 100.164ZM132.591 111H132.191V111.4H132.591V111ZM132.591 58.6364V58.2364H132.191V58.6364H132.591ZM144.557 58.6364H144.957V58.2364H144.557V58.6364ZM144.557 67.3636H144.157V67.7636H144.557V67.3636ZM145.102 67.3636V67.7636H145.395L145.484 67.4841L145.102 67.3636ZM150.011 60.375L150.242 60.7018L150.243 60.7013L150.011 60.375ZM160.307 57.9886L160.274 58.3875L160.286 58.3881L160.307 57.9886ZM162.455 58.2273H162.855V57.8993L162.533 57.835L162.455 58.2273ZM162.455 69.5795L162.323 69.9573L162.855 70.1422V69.5795H162.455ZM159.966 69.1023L159.909 69.4983L159.918 69.4994L159.966 69.1023ZM150.659 70.3295L150.849 70.6817L150.85 70.6809L150.659 70.3295ZM144.932 111V111.4H145.332V111H144.932ZM132.991 111V58.6364H132.191V111H132.991ZM132.591 59.0364H144.557V58.2364H132.591V59.0364ZM144.157 58.6364V67.3636H144.957V58.6364H144.157ZM144.557 67.7636H145.102V66.9636H144.557V67.7636ZM145.484 67.4841C146.415 64.5345 148.004 62.2818 150.242 60.7018L149.781 60.0482C147.383 61.7409 145.698 64.1473 144.721 67.2432L145.484 67.4841ZM150.243 60.7013C152.513 59.0924 155.102 58.2864 158.023 58.2864V57.4864C154.944 57.4864 152.192 58.3394 149.78 60.0487L150.243 60.7013ZM158.023 58.2864C158.692 58.2864 159.442 58.3198 160.274 58.3873L160.339 57.5899C159.49 57.5211 158.717 57.4864 158.023 57.4864V58.2864ZM160.286 58.3881C161.139 58.433 161.834 58.511 162.376 58.6195L162.533 57.835C161.939 57.7163 161.202 57.6352 160.328 57.5892L160.286 58.3881ZM162.055 58.2273V69.5795H162.855V58.2273H162.055ZM162.586 69.2017C162.02 69.005 161.155 68.8421 160.014 68.7051L159.918 69.4994C161.05 69.6352 161.843 69.7904 162.323 69.9573L162.586 69.2017ZM160.022 68.7063C158.892 68.5447 157.793 68.4636 156.727 68.4636V69.2636C157.752 69.2636 158.813 69.3416 159.909 69.4982L160.022 68.7063ZM156.727 68.4636C154.417 68.4636 152.328 68.9659 150.468 69.9782L150.85 70.6809C152.581 69.7387 154.537 69.2636 156.727 69.2636V68.4636ZM150.469 69.9774C148.634 70.9656 147.183 72.3453 146.123 74.1124L146.809 74.524C147.794 72.882 149.139 71.6026 150.849 70.6817L150.469 69.9774ZM146.123 74.1124C145.059 75.8863 144.532 77.9251 144.532 80.2159H145.332C145.332 78.0522 145.828 76.1591 146.809 74.524L146.123 74.1124ZM144.532 80.2159V111H145.332V80.2159H144.532ZM144.932 110.6H132.591V111.4H144.932V110.6ZM170.653 111H170.253V111.4H170.653V111ZM170.653 58.6364V58.2364H170.253V58.6364H170.653ZM182.449 58.6364H182.849V58.2364H182.449V58.6364ZM182.449 67.5341H182.049V67.9341H182.449V67.5341ZM183.062 67.5341V67.9341H183.343L183.438 67.6708L183.062 67.5341ZM188.483 60.5114L188.705 60.8442L188.707 60.8428L188.483 60.5114ZM206.483 60.5455L206.251 60.8716L206.255 60.874L206.483 60.5455ZM211.665 67.5341L211.286 67.6623L211.378 67.9341H211.665V67.5341ZM212.21 67.5341V67.9341H212.481L212.582 67.6821L212.21 67.5341ZM218.074 60.5795L218.287 60.9183L218.287 60.9178L218.074 60.5795ZM244.29 111V111.4H244.69V111H244.29ZM231.915 111H231.515V111.4H231.915V111ZM229.324 70.6364L229.059 70.9364L229.062 70.9384L229.324 70.6364ZM215.994 71.1477L215.697 70.8797L215.697 70.8799L215.994 71.1477ZM213.506 111V111.4H213.906V111H213.506ZM201.403 111H201.003V111.4H201.403V111ZM198.949 70.7727L198.666 71.0556L198.668 71.0575L198.949 70.7727ZM187.767 69.7159L187.975 70.0575L187.979 70.0551L187.767 69.7159ZM184.29 73.5L184.642 73.6888L184.644 73.6867L184.29 73.5ZM182.994 111V111.4H183.394V111H182.994ZM171.053 111V58.6364H170.253V111H171.053ZM170.653 59.0364H182.449V58.2364H170.653V59.0364ZM182.049 58.6364V67.5341H182.849V58.6364H182.049ZM182.449 67.9341H183.062V67.1341H182.449V67.9341ZM183.438 67.6708C184.502 64.7464 186.257 62.4761 188.705 60.8442L188.261 60.1785C185.664 61.9102 183.805 64.3218 182.687 67.3974L183.438 67.6708ZM188.707 60.8428C191.154 59.1894 194.085 58.3545 197.517 58.3545V57.5545C193.95 57.5545 190.857 58.4243 188.259 60.1799L188.707 60.8428ZM197.517 58.3545C200.996 58.3545 203.899 59.2009 206.251 60.8716L206.715 60.2193C204.203 58.4355 201.129 57.5545 197.517 57.5545V58.3545ZM206.255 60.874C208.636 62.5274 210.312 64.7852 211.286 67.6623L212.044 67.4058C211.017 64.3739 209.239 61.9726 206.711 60.2169L206.255 60.874ZM211.665 67.9341H212.21V67.1341H211.665V67.9341ZM212.582 67.6821C213.708 64.8549 215.606 62.6022 218.287 60.9183L217.861 60.2408C215.042 62.0114 213.03 64.3951 211.839 67.386L212.582 67.6821ZM218.287 60.9178C220.987 59.2142 224.194 58.3545 227.926 58.3545V57.5545C224.067 57.5545 220.707 58.4449 217.86 60.2413L218.287 60.9178ZM227.926 58.3545C232.652 58.3545 236.478 59.8443 239.439 62.8056L240.004 62.2399C236.875 59.1102 232.837 57.5545 227.926 57.5545V58.3545ZM239.439 62.8056C242.386 65.7524 243.89 70.0787 243.89 75.8523H244.69C244.69 69.9441 243.148 65.3839 240.004 62.2399L239.439 62.8056ZM243.89 75.8523V111H244.69V75.8523H243.89ZM244.29 110.6H231.915V111.4H244.29V110.6ZM232.315 111V77.7614H231.515V111H232.315ZM232.315 77.7614C232.315 74.4458 231.433 71.938 229.586 70.3344L229.062 70.9384C230.669 72.3347 231.515 74.5769 231.515 77.7614H232.315ZM229.588 70.3363C227.782 68.7434 225.571 67.9523 222.983 67.9523V68.7523C225.395 68.7523 227.412 69.4838 229.059 70.9364L229.588 70.3363ZM222.983 67.9523C219.915 67.9523 217.469 68.9164 215.697 70.8797L216.291 71.4157C217.883 69.6518 220.096 68.7523 222.983 68.7523V67.9523ZM215.697 70.8799C213.96 72.808 213.106 75.3075 213.106 78.3409H213.906C213.906 75.4652 214.711 73.1693 216.291 71.4155L215.697 70.8799ZM213.106 78.3409V111H213.906V78.3409H213.106ZM213.506 110.6H201.403V111.4H213.506V110.6ZM201.803 111V77.25H201.003V111H201.803ZM201.803 77.25C201.803 74.4588 200.956 72.1899 199.23 70.4879L198.668 71.0575C200.215 72.5828 201.003 74.6321 201.003 77.25H201.803ZM199.232 70.4899C197.532 68.7902 195.311 67.9523 192.608 67.9523V68.7523C195.132 68.7523 197.138 69.528 198.666 71.0556L199.232 70.4899ZM192.608 67.9523C190.763 67.9523 189.075 68.4265 187.555 69.3767L187.979 70.0551C189.368 69.1871 190.908 68.7523 192.608 68.7523V67.9523ZM187.559 69.3743C186.037 70.3015 184.83 71.6188 183.936 73.3133L184.644 73.6867C185.476 72.1085 186.588 70.9031 187.975 70.0575L187.559 69.3743ZM183.937 73.3112C183.037 74.9926 182.594 76.946 182.594 79.1591H183.394C183.394 77.054 183.815 75.2347 184.642 73.6888L183.937 73.3112ZM182.594 79.1591V111H183.394V79.1591H182.594ZM182.994 110.6H170.653V111.4H182.994V110.6ZM256.81 111H256.41V111.4H256.81V111ZM256.81 58.6364V58.2364H256.41V58.6364H256.81ZM269.151 58.6364H269.551V58.2364H269.151V58.6364ZM269.151 111V111.4H269.551V111H269.151ZM257.969 49.2614L257.695 49.5535L257.698 49.5558L257.969 49.2614ZM257.969 39.7841L258.239 40.0786L258.242 40.0762L257.969 39.7841ZM268.06 39.7841L267.784 40.074L267.789 40.0786L268.06 39.7841ZM268.06 49.2614L268.333 49.5536L268.333 49.5535L268.06 49.2614ZM257.21 111V58.6364H256.41V111H257.21ZM256.81 59.0364H269.151V58.2364H256.81V59.0364ZM268.751 58.6364V111H269.551V58.6364H268.751ZM269.151 110.6H256.81V111.4H269.151V110.6ZM263.014 50.8045C261.158 50.8045 259.573 50.1929 258.239 48.9669L257.698 49.5558C259.183 50.9207 260.962 51.6045 263.014 51.6045V50.8045ZM258.242 48.9693C256.909 47.7226 256.255 46.2471 256.255 44.5227H255.455C255.455 46.4802 256.21 48.1637 257.695 49.5535L258.242 48.9693ZM256.255 44.5227C256.255 42.7744 256.91 41.3006 258.239 40.0786L257.698 39.4896C256.209 40.8585 255.455 42.5438 255.455 44.5227H256.255ZM258.242 40.0762C259.576 38.8283 261.16 38.2068 263.014 38.2068V37.4068C260.96 37.4068 259.18 38.1035 257.695 39.492L258.242 40.0762ZM263.014 38.2068C264.893 38.2068 266.475 38.8291 267.784 40.074L268.335 39.4942C266.872 38.1027 265.09 37.4068 263.014 37.4068V38.2068ZM267.789 40.0786C269.118 41.3006 269.773 42.7744 269.773 44.5227H270.573C270.573 42.5438 269.819 40.8585 268.33 39.4896L267.789 40.0786ZM269.773 44.5227C269.773 46.2471 269.119 47.7226 267.786 48.9693L268.333 49.5535C269.818 48.1637 270.573 46.4802 270.573 44.5227H269.773ZM267.787 48.9691C266.478 50.1922 264.895 50.8045 263.014 50.8045V51.6045C265.088 51.6045 266.869 50.9215 268.333 49.5536L267.787 48.9691ZM281.159 111H280.759V111.4H281.159V111ZM281.159 103.159L280.846 102.91L280.759 103.019V103.159H281.159ZM308.159 69.3068L308.472 69.5562L308.559 69.4468V69.3068H308.159ZM308.159 68.8636H308.559V68.4636H308.159V68.8636ZM282.045 68.8636H281.645V69.2636H282.045V68.8636ZM282.045 58.6364V58.2364H281.645V58.6364H282.045ZM323.261 58.6364H323.661V58.2364H323.261V58.6364ZM323.261 67.0568L323.578 67.3014L323.661 67.1933V67.0568H323.261ZM297.557 100.33L297.24 100.085L297.157 100.193V100.33H297.557ZM297.557 100.773H297.157V101.173H297.557V100.773ZM324.148 100.773H324.548V100.373H324.148V100.773ZM324.148 111V111.4H324.548V111H324.148ZM281.559 111V103.159H280.759V111H281.559ZM281.472 103.409L308.472 69.5562L307.846 69.0574L280.846 102.91L281.472 103.409ZM308.559 69.3068V68.8636H307.759V69.3068H308.559ZM308.159 68.4636H282.045V69.2636H308.159V68.4636ZM282.445 68.8636V58.6364H281.645V68.8636H282.445ZM282.045 59.0364H323.261V58.2364H282.045V59.0364ZM322.861 58.6364V67.0568H323.661V58.6364H322.861ZM322.945 66.8123L297.24 100.085L297.873 100.574L323.578 67.3014L322.945 66.8123ZM297.157 100.33V100.773H297.957V100.33H297.157ZM297.557 101.173H324.148V100.373H297.557V101.173ZM323.748 100.773V111H324.548V100.773H323.748ZM324.148 110.6H281.159V111.4H324.148V110.6ZM343.827 108.75L343.626 109.096L343.628 109.097L343.827 108.75ZM335.065 99.4091L334.708 99.5896L334.709 99.5904L335.065 99.4091ZM335.065 70.9432L334.708 70.7627L334.708 70.7635L335.065 70.9432ZM343.724 61.3977L343.934 61.7387L343.935 61.7377L343.724 61.3977ZM365.918 59.5227L365.78 59.8985L365.784 59.8998L365.918 59.5227ZM373.554 64.2955L373.274 64.5812L373.276 64.5827L373.554 64.2955ZM378.804 72.5455L378.43 72.6879L378.431 72.6887L378.804 72.5455ZM380.713 88.1932V88.5932H381.113V88.1932H380.713ZM337.793 88.1932H337.393V88.5932H337.793V88.1932ZM337.793 79.875V79.475H337.393V79.875H337.793ZM368.884 79.875V80.275H369.287L369.284 79.8712L368.884 79.875ZM367.349 73.5682L366.997 73.7573L366.998 73.7591L367.349 73.5682ZM363.156 69.1705L362.95 69.5131L362.952 69.5142L363.156 69.1705ZM350.304 69.4091L350.517 69.7474L350.52 69.7456L350.304 69.4091ZM345.838 74.1818L345.486 73.9917L345.485 73.9932L345.838 74.1818ZM344.236 80.625L343.836 80.6211V80.625H344.236ZM345.906 95.7273L345.55 95.9091L345.551 95.9106L345.906 95.7273ZM350.577 100.705L350.376 101.051L350.379 101.052L350.577 100.705ZM362.474 101.659L362.604 102.037L362.61 102.036L362.474 101.659ZM368.679 95.6591L368.724 95.2616L368.412 95.2266L368.304 95.5205L368.679 95.6591ZM380.202 96.9545L380.591 97.0475L380.696 96.6076L380.246 96.557L380.202 96.9545ZM376.043 104.932L375.745 104.664L375.745 104.664L376.043 104.932ZM368.27 110.182L368.415 110.555L368.417 110.554L368.27 110.182ZM357.429 111.623C352.235 111.623 347.772 110.544 344.025 108.403L343.628 109.097C347.518 111.32 352.123 112.423 357.429 112.423V111.623ZM344.028 108.404C340.301 106.239 337.433 103.184 335.422 99.2278L334.709 99.5904C336.788 103.68 339.762 106.851 343.626 109.096L344.028 108.404ZM335.422 99.2286C333.41 95.2496 332.397 90.5525 332.397 85.125H331.597C331.597 90.6521 332.629 95.4777 334.708 99.5896L335.422 99.2286ZM332.397 85.125C332.397 79.7897 333.41 75.126 335.423 71.1229L334.708 70.7635C332.63 74.8968 331.597 79.6876 331.597 85.125H332.397ZM335.422 71.1236C337.459 67.0951 340.296 63.9705 343.934 61.7387L343.515 61.0568C339.744 63.3704 336.808 66.6094 334.708 70.7627L335.422 71.1236ZM343.935 61.7377C347.568 59.487 351.844 58.3545 356.781 58.3545V57.5545C351.718 57.5545 347.29 58.7175 343.514 61.0577L343.935 61.7377ZM356.781 58.3545C359.965 58.3545 362.963 58.87 365.78 59.8985L366.055 59.147C363.145 58.0846 360.053 57.5545 356.781 57.5545V58.3545ZM365.784 59.8998C368.615 60.9029 371.111 62.4625 373.274 64.5812L373.834 64.0097C371.588 61.8102 368.993 60.188 366.051 59.1457L365.784 59.8998ZM373.276 64.5827C375.455 66.6953 377.175 69.3933 378.43 72.6879L379.178 72.4031C377.887 69.0158 376.108 66.2138 373.832 64.0083L373.276 64.5827ZM378.431 72.6887C379.681 75.95 380.313 79.8535 380.313 84.4091H381.113C381.113 79.7828 380.472 75.7773 379.177 72.4022L378.431 72.6887ZM380.313 84.4091V88.1932H381.113V84.4091H380.313ZM380.713 87.7932H337.793V88.5932H380.713V87.7932ZM338.193 88.1932V79.875H337.393V88.1932H338.193ZM337.793 80.275H368.884V79.475H337.793V80.275ZM369.284 79.8712C369.26 77.4506 368.736 75.2826 367.701 73.3772L366.998 73.7591C367.963 75.5355 368.461 77.5721 368.484 79.8788L369.284 79.8712ZM367.702 73.3791C366.668 71.4522 365.219 69.9325 363.361 68.8267L362.952 69.5142C364.684 70.5448 366.031 71.9569 366.997 73.7573L367.702 73.3791ZM363.363 68.8278C361.519 67.717 359.378 67.1682 356.952 67.1682V67.9682C359.253 67.9682 361.248 68.4875 362.95 69.5131L363.363 68.8278ZM356.952 67.1682C354.361 67.1682 352.068 67.7993 350.088 69.0726L350.52 69.7456C352.358 68.5643 354.497 67.9682 356.952 67.9682V67.1682ZM350.091 69.0708C348.124 70.3118 346.587 71.9537 345.486 73.9917L346.19 74.3719C347.225 72.4554 348.666 70.9154 350.517 69.7474L350.091 69.0708ZM345.485 73.9932C344.408 76.0078 343.859 78.2194 343.836 80.6211L344.636 80.6289C344.658 78.3487 345.177 76.2649 346.191 74.3705L345.485 73.9932ZM343.836 80.625V87.8864H344.636V80.625H343.836ZM343.836 87.8864C343.836 90.98 344.401 93.659 345.55 95.9091L346.263 95.5454C345.184 93.432 344.636 90.8837 344.636 87.8864H343.836ZM345.551 95.9106C346.698 98.134 348.307 99.8512 350.376 101.051L350.777 100.358C348.847 99.2397 347.342 97.6387 346.262 95.5439L345.551 95.9106ZM350.379 101.052C352.449 102.228 354.86 102.809 357.599 102.809V102.009C354.975 102.009 352.705 101.454 350.774 100.357L350.379 101.052ZM357.599 102.809C359.432 102.809 361.102 102.554 362.604 102.037L362.344 101.281C360.938 101.764 359.358 102.009 357.599 102.009V102.809ZM362.61 102.036C364.113 101.495 365.422 100.706 366.532 99.667L365.985 99.083C364.959 100.044 363.745 100.777 362.339 101.283L362.61 102.036ZM366.532 99.667C367.649 98.6213 368.489 97.3287 369.054 95.7976L368.304 95.5205C367.778 96.944 367.004 98.1287 365.985 99.083L366.532 99.667ZM368.634 96.0566L380.157 97.352L380.246 96.557L368.724 95.2616L368.634 96.0566ZM379.813 96.8616C379.1 99.8437 377.745 102.442 375.745 104.664L376.34 105.199C378.431 102.876 379.848 100.156 380.591 97.0475L379.813 96.8616ZM375.745 104.664C373.769 106.863 371.231 108.58 368.123 109.81L368.417 110.554C371.627 109.284 374.271 107.501 376.34 105.199L375.745 104.664ZM368.125 109.809C365.02 111.015 361.457 111.623 357.429 111.623V112.423C361.537 112.423 365.201 111.803 368.415 110.555L368.125 109.809ZM400.733 108.75L400.532 109.096L400.534 109.097L400.733 108.75ZM391.972 99.4091L391.615 99.5896L391.615 99.5904L391.972 99.4091ZM391.972 70.9432L391.615 70.7627L391.614 70.7635L391.972 70.9432ZM400.631 61.3977L400.84 61.7387L400.841 61.7377L400.631 61.3977ZM422.824 59.5227L422.687 59.8985L422.69 59.8998L422.824 59.5227ZM430.46 64.2955L430.18 64.5812L430.182 64.5827L430.46 64.2955ZM435.71 72.5455L435.336 72.6879L435.337 72.6887L435.71 72.5455ZM437.619 88.1932V88.5932H438.019V88.1932H437.619ZM394.699 88.1932H394.299V88.5932H394.699V88.1932ZM394.699 79.875V79.475H394.299V79.875H394.699ZM425.79 79.875V80.275H426.194L426.19 79.8712L425.79 79.875ZM424.256 73.5682L423.903 73.7573L423.904 73.7591L424.256 73.5682ZM420.062 69.1705L419.856 69.5131L419.858 69.5142L420.062 69.1705ZM407.21 69.4091L407.424 69.7474L407.427 69.7456L407.21 69.4091ZM402.744 74.1818L402.392 73.9917L402.392 73.9932L402.744 74.1818ZM401.142 80.625L400.742 80.6211V80.625H401.142ZM402.812 95.7273L402.456 95.9091L402.457 95.9106L402.812 95.7273ZM407.483 100.705L407.282 101.051L407.285 101.052L407.483 100.705ZM419.381 101.659L419.511 102.037L419.516 102.036L419.381 101.659ZM425.585 95.6591L425.63 95.2616L425.319 95.2266L425.21 95.5205L425.585 95.6591ZM437.108 96.9545L437.497 97.0475L437.602 96.6076L437.153 96.557L437.108 96.9545ZM432.949 104.932L432.652 104.664L432.651 104.664L432.949 104.932ZM425.176 110.182L425.321 110.555L425.323 110.554L425.176 110.182ZM414.335 111.623C409.141 111.623 404.678 110.544 400.931 108.403L400.534 109.097C404.424 111.32 409.029 112.423 414.335 112.423V111.623ZM400.934 108.404C397.207 106.239 394.34 103.184 392.328 99.2278L391.615 99.5904C393.694 103.68 396.668 106.851 400.532 109.096L400.934 108.404ZM392.329 99.2286C390.317 95.2496 389.303 90.5525 389.303 85.125H388.503C388.503 90.6521 389.536 95.4777 391.615 99.5896L392.329 99.2286ZM389.303 85.125C389.303 79.7897 390.316 75.126 392.329 71.1229L391.614 70.7635C389.536 74.8968 388.503 79.6876 388.503 85.125H389.303ZM392.329 71.1236C394.365 67.0951 397.202 63.9705 400.84 61.7387L400.422 61.0568C396.65 63.3704 393.714 66.6094 391.615 70.7627L392.329 71.1236ZM400.841 61.7377C404.474 59.487 408.751 58.3545 413.688 58.3545V57.5545C408.624 57.5545 404.197 58.7175 400.42 61.0577L400.841 61.7377ZM413.688 58.3545C416.871 58.3545 419.87 58.87 422.687 59.8985L422.961 59.147C420.051 58.0846 416.959 57.5545 413.688 57.5545V58.3545ZM422.69 59.8998C425.521 60.9029 428.017 62.4625 430.18 64.5812L430.74 64.0097C428.494 61.8102 425.899 60.188 422.957 59.1457L422.69 59.8998ZM430.182 64.5827C432.361 66.6953 434.081 69.3933 435.336 72.6879L436.084 72.4031C434.794 69.0158 433.014 66.2138 430.739 64.0083L430.182 64.5827ZM435.337 72.6887C436.588 75.95 437.219 79.8535 437.219 84.4091H438.019C438.019 79.7828 437.378 75.7773 436.084 72.4022L435.337 72.6887ZM437.219 84.4091V88.1932H438.019V84.4091H437.219ZM437.619 87.7932H394.699V88.5932H437.619V87.7932ZM395.099 88.1932V79.875H394.299V88.1932H395.099ZM394.699 80.275H425.79V79.475H394.699V80.275ZM426.19 79.8712C426.166 77.4506 425.642 75.2826 424.607 73.3772L423.904 73.7591C424.869 75.5355 425.368 77.5721 425.39 79.8788L426.19 79.8712ZM424.608 73.3791C423.574 71.4522 422.126 69.9325 420.267 68.8267L419.858 69.5142C421.59 70.5448 422.937 71.9569 423.903 73.7573L424.608 73.3791ZM420.269 68.8278C418.425 67.717 416.284 67.1682 413.858 67.1682V67.9682C416.159 67.9682 418.154 68.4875 419.856 69.5131L420.269 68.8278ZM413.858 67.1682C411.267 67.1682 408.975 67.7993 406.994 69.0726L407.427 69.7456C409.264 68.5643 411.403 67.9682 413.858 67.9682V67.1682ZM406.997 69.0708C405.03 70.3118 403.493 71.9537 402.392 73.9917L403.096 74.3719C404.132 72.4554 405.572 70.9154 407.424 69.7474L406.997 69.0708ZM402.392 73.9932C401.314 76.0078 400.765 78.2194 400.742 80.6211L401.542 80.6289C401.564 78.3487 402.084 76.2649 403.097 74.3705L402.392 73.9932ZM400.742 80.625V87.8864H401.542V80.625H400.742ZM400.742 87.8864C400.742 90.98 401.308 93.659 402.456 95.9091L403.169 95.5454C402.09 93.432 401.542 90.8837 401.542 87.8864H400.742ZM402.457 95.9106C403.604 98.134 405.213 99.8512 407.282 101.051L407.684 100.358C405.753 99.2397 404.248 97.6387 403.168 95.5439L402.457 95.9106ZM407.285 101.052C409.355 102.228 411.766 102.809 414.506 102.809V102.009C411.882 102.009 409.611 101.454 407.681 100.357L407.285 101.052ZM414.506 102.809C416.338 102.809 418.008 102.554 419.511 102.037L419.251 101.281C417.844 101.764 416.264 102.009 414.506 102.009V102.809ZM419.516 102.036C421.019 101.495 422.328 100.706 423.438 99.667L422.891 99.083C421.865 100.044 420.652 100.777 419.245 101.283L419.516 102.036ZM423.438 99.667C424.555 98.6213 425.395 97.3287 425.96 95.7976L425.21 95.5205C424.684 96.944 423.911 98.1287 422.891 99.083L423.438 99.667ZM425.541 96.0566L437.063 97.352L437.153 96.557L425.63 95.2616L425.541 96.0566ZM436.719 96.8616C436.007 99.8437 434.651 102.442 432.652 104.664L433.246 105.199C435.337 102.876 436.755 100.156 437.497 97.0475L436.719 96.8616ZM432.651 104.664C430.675 106.863 428.138 108.58 425.029 109.81L425.323 110.554C428.533 109.284 431.177 107.501 433.246 105.199L432.651 104.664ZM425.031 109.809C421.927 111.015 418.364 111.623 414.335 111.623V112.423C418.443 112.423 422.107 111.803 425.321 110.555L425.031 109.809ZM450.344 109.568L450.063 109.853L450.344 109.568ZM448.162 104.25L448.562 104.254L448.562 104.246L448.162 104.25ZM450.344 99L450.624 99.285L450.344 99ZM460.878 99L460.597 99.285L460.599 99.2872L460.878 99ZM463.162 104.25L463.562 104.257L463.562 104.246L463.162 104.25ZM462.071 108.034L461.731 107.823L461.728 107.828L462.071 108.034ZM459.344 110.761L459.547 111.106L459.55 111.104L459.344 110.761ZM455.662 111.35C453.699 111.35 452.027 110.664 450.624 109.283L450.063 109.853C451.615 111.381 453.488 112.15 455.662 112.15V111.35ZM450.624 109.283C449.225 107.906 448.54 106.238 448.562 104.254L447.762 104.246C447.738 106.444 448.508 108.322 450.063 109.853L450.624 109.283ZM448.562 104.246C448.54 102.31 449.223 100.664 450.624 99.285L450.063 98.715C448.51 100.245 447.738 102.099 447.762 104.254L448.562 104.246ZM450.624 99.285C452.027 97.904 453.699 97.2182 455.662 97.2182V96.4182C453.488 96.4182 451.615 97.187 450.063 98.715L450.624 99.285ZM455.662 97.2182C457.553 97.2182 459.192 97.9012 460.597 99.285L461.158 98.715C459.609 97.1898 457.771 96.4182 455.662 96.4182V97.2182ZM460.599 99.2872C462.025 100.669 462.74 102.318 462.762 104.254L463.562 104.246C463.538 102.091 462.731 100.24 461.156 98.7128L460.599 99.2872ZM462.762 104.243C462.74 105.56 462.396 106.751 461.731 107.823L462.411 108.245C463.155 107.045 463.538 105.712 463.562 104.257L462.762 104.243ZM461.728 107.828C461.08 108.908 460.218 109.77 459.138 110.418L459.55 111.104C460.742 110.389 461.698 109.433 462.414 108.24L461.728 107.828ZM459.14 110.417C458.09 111.038 456.934 111.35 455.662 111.35V112.15C457.072 112.15 458.37 111.803 459.547 111.106L459.14 110.417Z" fill="white" mask="url(#path-1-outside-1_338_85)"/>
</g>
</g>
<defs>
<filter id="filter0_d_338_85" x="-3.07603" y="16.4068" width="491.638" height="125.016" filterUnits="userSpaceOnUse" color-interpolation-filters="sRGB">
<feFlood flood-opacity="0" result="BackgroundImageFix"/>
<feColorMatrix in="SourceAlpha" type="matrix" values="0 0 0 0 0 0 0 0 0 0 0 0 0 0 0 0 0 0 127 0" result="hardAlpha"/>
<feOffset dy="4"/>
<feGaussianBlur stdDeviation="12.7"/>
<feComposite in2="hardAlpha" operator="out"/>
<feColorMatrix type="matrix" values="0 0 0 0 0 0 0 0 0 0 0 0 0 0 0 0 0 0 0.35 0"/>
<feBlend mode="normal" in2="BackgroundImageFix" result="effect1_dropShadow_338_85"/>
<feBlend mode="normal" in="SourceGraphic" in2="effect1_dropShadow_338_85" result="shape"/>
</filter>
<linearGradient id="paint0_linear_338_85" x1="242.5" y1="18" x2="242.5" y2="134" gradientUnits="userSpaceOnUse">
<stop stop-color="#F4F4F4"/>
<stop offset="1" stop-color="#929292"/>
</linearGradient>
<clipPath id="clip0_338_85">
<rect width="484" height="152" fill="white"/>
</clipPath>
</defs>
</svg>
